<svg width="53" height="16" viewBox="0 0 53 16" fill="none" xmlns="http://www.w3.org/2000/svg">
<path d="M0.935001 6.94114L6.935 0.941138C7.07486 0.80128 7.24089 0.690339 7.42362 0.614648C7.60636 0.538958 7.80221 0.5 8 0.5C8.19779 0.5 8.39364 0.538958 8.57638 0.614648C8.75911 0.690339 8.92514 0.80128 9.065 0.941138C9.20486 1.081 9.3158 1.24703 9.39149 1.42976C9.46718 1.6125 9.50614 1.80835 9.50614 2.00614C9.50614 2.20393 9.46718 2.39978 9.39149 2.58251C9.3158 2.76525 9.20486 2.93128 9.065 3.07114L5.615 6.50614H51.5C51.8978 6.50614 52.2794 6.66417 52.5607 6.94548C52.842 7.22678 53 7.60831 53 8.00614C53 8.40396 52.842 8.78549 52.5607 9.0668C52.2794 9.3481 51.8978 9.50614 51.5 9.50614H5.615L9.065 12.9411C9.20559 13.0806 9.31718 13.2465 9.39333 13.4293C9.46949 13.6121 9.5087 13.8081 9.5087 14.0061C9.5087 14.2042 9.46949 14.4002 9.39333 14.583C9.31718 14.7658 9.20559 14.9317 9.065 15.0711C8.92555 15.2117 8.75965 15.3233 8.57687 15.3995C8.39408 15.4756 8.19802 15.5148 8 15.5148C7.80198 15.5148 7.60592 15.4756 7.42313 15.3995C7.24035 15.3233 7.07445 15.2117 6.935 15.0711L0.935001 9.07114C0.798439 8.92848 0.691395 8.76026 0.620003 8.57614C0.469975 8.21095 0.469975 7.80133 0.620003 7.43614C0.691395 7.25201 0.798439 7.08379 0.935001 6.94114Z" fill="#101F73"/>
</svg>
