<svg width="53" height="16" viewBox="0 0 53 16" fill="none" xmlns="http://www.w3.org/2000/svg">
<path d="M52.065 6.94114L46.065 0.941138C45.9251 0.80128 45.7591 0.690339 45.5764 0.614648C45.3936 0.538958 45.1978 0.5 45 0.5C44.8022 0.5 44.6064 0.538958 44.4236 0.614648C44.2409 0.690339 44.0749 0.80128 43.935 0.941138C43.7951 1.081 43.6842 1.24703 43.6085 1.42976C43.5328 1.6125 43.4939 1.80835 43.4939 2.00614C43.4939 2.20393 43.5328 2.39978 43.6085 2.58251C43.6842 2.76525 43.7951 2.93128 43.935 3.07114L47.385 6.50614H1.5C1.10218 6.50614 0.720644 6.66417 0.43934 6.94548C0.158035 7.22678 0 7.60831 0 8.00614C0 8.40396 0.158035 8.78549 0.43934 9.0668C0.720644 9.3481 1.10218 9.50614 1.5 9.50614H47.385L43.935 12.9411C43.7944 13.0806 43.6828 13.2465 43.6067 13.4293C43.5305 13.6121 43.4913 13.8081 43.4913 14.0061C43.4913 14.2042 43.5305 14.4002 43.6067 14.583C43.6828 14.7658 43.7944 14.9317 43.935 15.0711C44.0744 15.2117 44.2403 15.3233 44.4231 15.3995C44.6059 15.4756 44.802 15.5148 45 15.5148C45.198 15.5148 45.3941 15.4756 45.5769 15.3995C45.7597 15.3233 45.9256 15.2117 46.065 15.0711L52.065 9.07114C52.2016 8.92848 52.3086 8.76026 52.38 8.57614C52.53 8.21095 52.53 7.80133 52.38 7.43614C52.3086 7.25201 52.2016 7.08379 52.065 6.94114Z" fill="#101F73"/>
</svg>
