<svg width="20" height="10" viewBox="0 0 20 10" fill="none" xmlns="http://www.w3.org/2000/svg">
<path d="M19.71 4.29409L15.71 0.294092C15.6168 0.200853 15.5061 0.126893 15.3842 0.0764322C15.2624 0.0259719 15.1319 1.96486e-09 15 0C14.8681 -1.96485e-09 14.7376 0.0259719 14.6158 0.0764322C14.4939 0.126893 14.3832 0.200853 14.29 0.294092C14.1968 0.38733 14.1228 0.498021 14.0723 0.619843C14.0219 0.741665 13.9959 0.872233 13.9959 1.00409C13.9959 1.13595 14.0219 1.26652 14.0723 1.38834C14.1228 1.51016 14.1968 1.62085 14.29 1.71409L16.59 4.00409H1C0.734784 4.00409 0.48043 4.10945 0.292893 4.29699C0.105357 4.48452 0 4.73888 0 5.00409C0 5.26931 0.105357 5.52366 0.292893 5.7112C0.48043 5.89873 0.734784 6.00409 1 6.00409H16.59L14.29 8.29409C14.1963 8.38706 14.1219 8.49765 14.0711 8.61951C14.0203 8.74137 13.9942 8.87208 13.9942 9.00409C13.9942 9.1361 14.0203 9.26681 14.0711 9.38867C14.1219 9.51053 14.1963 9.62113 14.29 9.71409C14.383 9.80782 14.4936 9.88221 14.6154 9.93298C14.7373 9.98375 14.868 10.0099 15 10.0099C15.132 10.0099 15.2627 9.98375 15.3846 9.93298C15.5064 9.88221 15.617 9.80782 15.71 9.71409L19.71 5.71409C19.801 5.61899 19.8724 5.50684 19.92 5.38409C20.02 5.14063 20.02 4.86755 19.92 4.62409C19.8724 4.50134 19.801 4.3892 19.71 4.29409Z" fill="#A60303"/>
</svg>
