<svg xmlns="http://www.w3.org/2000/svg" width="96" height="96" viewBox="0 0 96 96" fill="none"><path d="M41.4221 52.4791C41.1123 52.4555 40.8044 52.4124 40.5 52.3501V55.6525C41.4897 55.4499 42.5103 55.4499 43.5 55.6525V52.3501C42.8166 52.4886 42.1174 52.532 41.4221 52.4791Z" fill="#001A5D"></path><path d="M82.4999 38.2124V62.9999C82.4999 63.3977 82.3419 63.7793 82.0606 64.0606C81.7793 64.3419 81.3977 64.4999 80.9999 64.4999H76.4999C76.2626 64.4999 76.0286 64.4436 75.8172 64.3356C75.6059 64.2275 75.4232 64.0709 75.2842 63.8785L66.527 51.7593C66.5178 51.7465 66.5082 51.7336 66.4998 51.7207C66.1734 51.221 65.7508 50.7912 65.2567 50.4564C64.7626 50.1216 64.2068 49.8884 63.6217 49.7705C63.0366 49.6525 62.4339 49.6521 61.8487 49.7694C61.2635 49.8866 60.7074 50.119 60.2129 50.4532C59.7183 50.7874 59.2952 51.2166 58.9682 51.7159C58.6411 52.2152 58.4166 52.7745 58.3078 53.3614C58.199 53.9482 58.208 54.5508 58.3344 55.1342C58.4607 55.7175 58.7018 56.2699 59.0437 56.7592L68.7738 71.1601C68.9964 71.4894 69.0791 71.8937 69.0039 72.284C69.0822 75.8129 70.538 79.1712 73.06 81.6409C75.582 84.1105 78.9701 85.4956 82.4999 85.4999H91.4999V53.8235C91.4992 53.1018 91.3256 52.3907 90.9937 51.7499L82.4999 38.2124Z" fill="#001A5D"></path><path d="M60.6523 64.5H49.35C48.952 66.4492 47.796 68.1606 46.1364 69.2576C44.4768 70.3547 42.4493 70.7476 40.5 70.35V79.5H67.8073C66.6819 77.3065 66.0659 74.8873 66.0052 72.4226L60.6523 64.5Z" fill="#001A5D"></path><path d="M42.3523 67.4874C43.2198 67.4175 44.0487 67.0983 44.739 66.5683C45.4294 66.0383 45.9518 65.32 46.2435 64.5H45C44.6022 64.5 44.2206 64.342 43.9393 64.0607C43.658 63.7794 43.5 63.3978 43.5 63V58.7582C42.8872 58.5412 42.2347 58.4595 41.5874 58.5187C40.94 58.578 40.3132 58.7768 39.75 59.1015C39.522 59.2332 39.2633 59.3025 39 59.3025C38.7367 59.3025 38.478 59.2332 38.25 59.1015C38.022 58.9699 37.8326 58.7805 37.701 58.5525C37.5693 58.3245 37.5 58.0658 37.5 57.8025V50.9906C36.036 49.8898 35.0232 48.2934 34.6509 46.5H28.3485C28.5706 47.5889 28.5479 48.7135 28.2822 49.7926C28.0166 50.8717 27.5144 51.8783 26.8122 52.7396C26.1099 53.6009 25.2251 54.2955 24.2216 54.773C23.2181 55.2506 22.1211 55.4992 21.0098 55.5009C20.8261 55.5009 20.6418 55.4944 20.4568 55.4812C19.3932 55.404 18.3582 55.1008 17.421 54.592C16.4838 54.0832 15.6659 53.3803 15.0217 52.5304C14.3776 51.6805 13.922 50.703 13.6855 49.6631C13.449 48.6233 13.4369 47.5449 13.65 46.5H4.5V75C4.50134 76.1931 4.97588 77.3369 5.8195 78.1805C6.66312 79.0241 7.80694 79.4987 9 79.5H37.5V68.1975C37.5 67.9342 37.5693 67.6755 37.701 67.4475C37.8326 67.2195 38.022 67.0301 38.25 66.8985C38.478 66.7668 38.7367 66.6975 39 66.6975C39.2633 66.6975 39.522 66.7668 39.75 66.8985C40.5382 67.3526 41.4453 67.5579 42.3523 67.4874Z" fill="#001A5D"></path><path d="M17.1017 44.25C17.2333 44.478 17.3027 44.7367 17.3027 45C17.3027 45.2633 17.2333 45.522 17.1017 45.75C16.5618 46.6836 16.3752 47.78 16.5757 48.8396C16.7763 49.8992 17.3507 50.8515 18.1944 51.5232C19.038 52.1949 20.0949 52.5413 21.1725 52.4993C22.2501 52.4573 23.2768 52.0297 24.0656 51.2944C24.8108 50.6005 25.2989 49.6745 25.4501 48.6676C25.6014 47.6607 25.407 46.6322 24.8985 45.75C24.7669 45.522 24.6975 45.2633 24.6975 45C24.6975 44.7367 24.7668 44.478 24.8985 44.25C25.0301 44.022 25.2195 43.8326 25.4475 43.701C25.6755 43.5693 25.9342 43.5 26.1975 43.5H34.6487C35.014 41.7019 36.0291 40.1015 37.5 39.0047V34.35C36.4551 34.5631 35.3768 34.551 34.337 34.3145C33.2971 34.078 32.3197 33.6226 31.4698 32.9785C30.6199 32.3344 29.917 31.5165 29.4082 30.5794C28.8993 29.6422 28.5961 28.6073 28.5188 27.5437C28.4403 26.5149 28.5768 25.4809 28.9197 24.5077C29.2627 23.5344 29.8044 22.6432 30.5106 21.8908C31.3861 20.95 32.4887 20.2499 33.7127 19.8578C34.9366 19.4657 36.2407 19.3946 37.5 19.6515V10.5H9C7.80694 10.5013 6.66312 10.9759 5.8195 11.8195C4.97588 12.6631 4.50134 13.8069 4.5 15V43.5H15.8025C16.0658 43.5 16.3245 43.5693 16.5526 43.7009C16.7806 43.8326 16.97 44.0219 17.1017 44.25Z" fill="#001A5D"></path><path d="M41.6483 49.4874C42.5554 49.5586 43.4627 49.3533 44.2508 48.8985C44.4788 48.7668 44.7375 48.6975 45.0008 48.6975C45.2641 48.6975 45.5228 48.7668 45.7508 48.8985C45.9788 49.0301 46.1682 49.2195 46.2998 49.4475C46.4315 49.6755 46.5008 49.9342 46.5008 50.1975V61.5H58.626L56.5577 58.4389C56.0049 57.6237 55.6181 56.7077 55.4194 55.743C55.2206 54.7783 55.2138 53.784 55.3994 52.8167C55.5849 51.8494 55.9591 50.9281 56.5007 50.1055C57.0423 49.2828 57.7406 48.5749 58.5557 48.0221C60.202 46.9057 62.2244 46.489 64.1779 46.8637C66.1314 47.2384 67.8561 48.3738 68.9725 50.0201L77.2675 61.5H79.5008V33C79.4995 31.8069 79.0249 30.6631 78.1813 29.8195C77.3377 28.9759 76.1939 28.5013 75.0008 28.5H46.5008V39.8025C46.5008 40.0658 46.4315 40.3245 46.2998 40.5525C46.1682 40.7805 45.9788 40.9699 45.7508 41.1015C45.5228 41.2332 45.2641 41.3025 45.0008 41.3025C44.7375 41.3025 44.4788 41.2331 44.2508 41.1015C43.5665 40.7072 42.7906 40.4998 42.0008 40.5C41.382 40.5001 40.7698 40.6278 40.2026 40.8751C39.6353 41.1224 39.1252 41.484 38.7039 41.9373C38.2827 42.3906 37.9594 42.9259 37.7544 43.5097C37.5493 44.0936 37.4668 44.7134 37.512 45.3306C37.593 46.4027 38.0542 47.4107 38.8125 48.1728C39.5709 48.935 40.5766 49.4012 41.6483 49.4874Z" fill="#001A5D"></path></svg>