<svg xmlns="http://www.w3.org/2000/svg" width="96" height="96" viewBox="0 0 96 96" fill="none"><g clip-path="url(#clip0_2431_5361)"><path d="M81.0879 27.6077L87.1399 18.1246L91.8821 21.1511L85.83 30.6341L81.0879 27.6077Z" fill="#001A5D"></path><path d="M63.8809 19.9839L67.4882 9.34178L72.8153 11.1475L69.208 21.7896L63.8809 19.9839Z" fill="#001A5D"></path><path d="M45.1836 6.43408H50.8089V17.6847H45.1836V6.43408Z" fill="#001A5D"></path><path d="M23.1973 11.1182L28.5244 9.31244L32.1318 19.9545L26.8046 21.7603L23.1973 11.1182Z" fill="#001A5D"></path><path d="M4.10938 21.1616L8.85152 18.1352L14.9036 27.6182L10.1614 30.6446L4.10938 21.1616Z" fill="#001A5D"></path><path d="M73.3102 45.8113C73.3102 49.239 72.6346 52.5598 71.3484 55.6235C71.5193 55.6175 71.6907 55.6144 71.8626 55.6144C75.619 55.6144 79.1506 57.0771 81.8068 59.7334L84.6221 62.5487C88.8841 59.1726 92.7372 55.3787 95.9997 51.3744C88.6088 42.8846 78.8931 35.2008 68.2363 30.5959C71.5283 34.9539 73.3102 40.2415 73.3102 45.8113Z" fill="#001A5D"></path><path d="M57.8168 69.1502C54.749 70.4387 51.4248 71.116 47.9963 71.116C41.2463 71.116 34.8976 68.4956 30.1195 63.7371C25.3237 58.961 22.6824 52.5949 22.6824 45.8113C22.6824 40.2347 24.4692 34.9405 27.7696 30.5789C26.4482 31.1523 25.1259 31.7797 23.803 32.4626C15.5315 36.7335 7.40554 42.9274 0 51.4366C11.9024 65.1485 29.7857 76.7505 47.9965 76.7505C51.6755 76.7505 55.3734 76.278 59.0259 75.408C58.1515 73.4415 57.7385 71.2975 57.8168 69.1502Z" fill="#001A5D"></path><path d="M71.8634 61.2395C70.5827 61.2395 69.346 61.5235 68.2242 62.0606L63.7689 57.6053C66.2274 54.3258 67.6858 50.2476 67.6858 45.8113C67.6858 34.8773 58.8321 26.1318 47.9972 26.1318C37.1548 26.1318 28.3086 34.8854 28.3086 45.8113C28.3086 56.7452 37.1625 65.4907 47.9972 65.4907C52.4127 65.4907 56.4971 64.0386 59.7879 61.5796L64.2503 66.042C62.7564 69.1779 63.3043 73.0513 65.897 75.6442L79.8189 89.5661L91.7519 77.633L77.83 63.711C76.2361 62.1172 74.1173 61.2395 71.8634 61.2395ZM47.9972 54.2492C43.3445 54.2492 39.5592 50.464 39.5592 45.8113C39.5592 41.1586 43.3445 37.3733 47.9972 37.3733C52.6499 37.3733 56.4352 41.1586 56.4352 45.8113C56.4352 50.464 52.6499 54.2492 47.9972 54.2492Z" fill="#001A5D"></path><path d="M47.9963 48.6241C49.5496 48.6241 50.8089 47.3648 50.8089 45.8114C50.8089 44.2581 49.5496 42.9988 47.9963 42.9988C46.4429 42.9988 45.1836 44.2581 45.1836 45.8114C45.1836 47.3648 46.4429 48.6241 47.9963 48.6241Z" fill="#001A5D"></path></g><defs><clipPath id="clip0_2431_5361"><rect width="96" height="96" fill="white"></rect></clipPath></defs></svg>